<mxfile host="app.diagrams.net" agent="Mozilla/5.0 (Windows NT 10.0; Win64; x64) AppleWebKit/537.36 (KHTML, like Gecko) Chrome/129.0.0.0 Safari/537.36" version="24.7.17">
  <diagram name="Página-1" id="0tccnplTgCQu9_d9tdW-">
    <mxGraphModel dx="1477" dy="637" grid="1" gridSize="10" guides="1" tooltips="1" connect="1" arrows="1" fold="1" page="1" pageScale="1" pageWidth="827" pageHeight="1169" background="none" math="0" shadow="1">
      <root>
        <mxCell id="0" />
        <mxCell id="1" parent="0" />
        <mxCell id="v56k_M-V0nfEXO4-_IJC-8" value="" style="edgeStyle=orthogonalEdgeStyle;rounded=1;orthogonalLoop=1;jettySize=auto;labelBackgroundColor=none;fontColor=default;fontFamily=Verdana;fontStyle=1;labelBorderColor=none;textShadow=0;labelPosition=center;verticalLabelPosition=middle;align=center;verticalAlign=middle;" parent="1" edge="1">
          <mxGeometry relative="1" as="geometry">
            <mxPoint x="290" y="829" as="sourcePoint" />
            <mxPoint x="290" y="899" as="targetPoint" />
          </mxGeometry>
        </mxCell>
        <mxCell id="z_xBJc3v1olEnhKW6ndK-3" value="&lt;span style=&quot;font-family: Verdana; font-weight: 700; background-color: rgb(251, 251, 251);&quot;&gt;&amp;lt;&amp;lt;Include&amp;gt;&amp;gt;&lt;/span&gt;" style="edgeLabel;html=1;align=center;verticalAlign=middle;resizable=0;points=[];labelBackgroundColor=none;rounded=1;" parent="v56k_M-V0nfEXO4-_IJC-8" vertex="1" connectable="0">
          <mxGeometry x="-0.1429" y="1" relative="1" as="geometry">
            <mxPoint as="offset" />
          </mxGeometry>
        </mxCell>
        <mxCell id="v56k_M-V0nfEXO4-_IJC-12" value="" style="edgeStyle=orthogonalEdgeStyle;rounded=1;orthogonalLoop=1;jettySize=auto;entryX=1;entryY=0.5;entryDx=0;entryDy=0;labelBackgroundColor=none;fontColor=default;fontFamily=Verdana;fontStyle=1;labelBorderColor=none;textShadow=0;labelPosition=center;verticalLabelPosition=middle;align=center;verticalAlign=middle;" parent="1" edge="1">
          <mxGeometry relative="1" as="geometry">
            <mxPoint x="350" y="929" as="targetPoint" />
            <Array as="points">
              <mxPoint x="480" y="929" />
            </Array>
            <mxPoint x="480" y="829" as="sourcePoint" />
          </mxGeometry>
        </mxCell>
        <mxCell id="z_xBJc3v1olEnhKW6ndK-4" value="&lt;span style=&quot;font-family: Verdana; font-weight: 700; background-color: rgb(251, 251, 251);&quot;&gt;&amp;lt;&amp;lt;Include&amp;gt;&amp;gt;&lt;/span&gt;" style="edgeLabel;html=1;align=center;verticalAlign=middle;resizable=0;points=[];labelBackgroundColor=none;rounded=1;" parent="v56k_M-V0nfEXO4-_IJC-12" vertex="1" connectable="0">
          <mxGeometry x="0.4899" y="-1" relative="1" as="geometry">
            <mxPoint as="offset" />
          </mxGeometry>
        </mxCell>
        <mxCell id="v56k_M-V0nfEXO4-_IJC-14" value="" style="edgeStyle=orthogonalEdgeStyle;rounded=1;orthogonalLoop=1;jettySize=auto;labelBackgroundColor=none;fontColor=default;fontFamily=Verdana;fontStyle=1;labelBorderColor=none;textShadow=0;labelPosition=center;verticalLabelPosition=middle;align=center;verticalAlign=middle;" parent="1" edge="1">
          <mxGeometry relative="1" as="geometry">
            <mxPoint x="290" y="959" as="sourcePoint" />
            <mxPoint x="290" y="1119" as="targetPoint" />
          </mxGeometry>
        </mxCell>
        <mxCell id="z_xBJc3v1olEnhKW6ndK-7" value="&lt;span style=&quot;font-family: Verdana; font-weight: 700; background-color: rgb(251, 251, 251);&quot;&gt;&amp;lt;&amp;lt;Extends&amp;gt;&amp;gt;&lt;/span&gt;" style="edgeLabel;html=1;align=center;verticalAlign=middle;resizable=0;points=[];labelBackgroundColor=none;rounded=1;" parent="v56k_M-V0nfEXO4-_IJC-14" vertex="1" connectable="0">
          <mxGeometry x="-0.2625" y="-1" relative="1" as="geometry">
            <mxPoint as="offset" />
          </mxGeometry>
        </mxCell>
        <mxCell id="gzgX_gIogwDmUI5mt8IQ-4" style="edgeStyle=orthogonalEdgeStyle;rounded=0;orthogonalLoop=1;jettySize=auto;html=1;entryX=0;entryY=0.5;entryDx=0;entryDy=0;fontFamily=Helvetica;fontSize=11;fontColor=default;labelBackgroundColor=none;resizable=0;" edge="1" parent="1" source="TWlP38daomhFdKpjj_hh-1" target="TWlP38daomhFdKpjj_hh-3">
          <mxGeometry relative="1" as="geometry">
            <Array as="points">
              <mxPoint x="270" y="360" />
            </Array>
          </mxGeometry>
        </mxCell>
        <mxCell id="gzgX_gIogwDmUI5mt8IQ-7" style="edgeStyle=orthogonalEdgeStyle;rounded=0;orthogonalLoop=1;jettySize=auto;html=1;entryX=0;entryY=0.5;entryDx=0;entryDy=0;fontFamily=Helvetica;fontSize=11;fontColor=default;labelBackgroundColor=none;resizable=0;" edge="1" parent="1" source="TWlP38daomhFdKpjj_hh-1" target="TWlP38daomhFdKpjj_hh-2">
          <mxGeometry relative="1" as="geometry">
            <Array as="points">
              <mxPoint x="175" y="430" />
              <mxPoint x="175" y="525" />
            </Array>
          </mxGeometry>
        </mxCell>
        <mxCell id="gzgX_gIogwDmUI5mt8IQ-8" style="edgeStyle=orthogonalEdgeStyle;rounded=0;orthogonalLoop=1;jettySize=auto;html=1;entryX=0;entryY=0.5;entryDx=0;entryDy=0;fontFamily=Helvetica;fontSize=11;fontColor=default;labelBackgroundColor=none;resizable=0;" edge="1" parent="1" source="TWlP38daomhFdKpjj_hh-1" target="TWlP38daomhFdKpjj_hh-4">
          <mxGeometry relative="1" as="geometry">
            <Array as="points">
              <mxPoint x="55" y="225" />
            </Array>
          </mxGeometry>
        </mxCell>
        <mxCell id="TWlP38daomhFdKpjj_hh-1" value="usuário" style="shape=umlActor;verticalLabelPosition=bottom;verticalAlign=top;html=1;outlineConnect=0;align=center;fontStyle=1;fontFamily=Verdana;labelBackgroundColor=none;rounded=1;" parent="1" vertex="1">
          <mxGeometry x="30" y="330" width="50" height="100" as="geometry" />
        </mxCell>
        <mxCell id="gzgX_gIogwDmUI5mt8IQ-13" style="edgeStyle=orthogonalEdgeStyle;rounded=0;orthogonalLoop=1;jettySize=auto;html=1;entryX=0.5;entryY=1;entryDx=0;entryDy=0;fontFamily=Helvetica;fontSize=11;fontColor=default;labelBackgroundColor=none;resizable=0;" edge="1" parent="1" source="TWlP38daomhFdKpjj_hh-2" target="gzgX_gIogwDmUI5mt8IQ-11">
          <mxGeometry relative="1" as="geometry" />
        </mxCell>
        <mxCell id="TWlP38daomhFdKpjj_hh-2" value="Cadastro de Tarefas" style="ellipse;whiteSpace=wrap;html=1;align=center;fontStyle=1;fontFamily=Verdana;labelBackgroundColor=none;rounded=1;" parent="1" vertex="1">
          <mxGeometry x="270" y="500" width="120" height="50" as="geometry" />
        </mxCell>
        <mxCell id="gzgX_gIogwDmUI5mt8IQ-12" style="edgeStyle=orthogonalEdgeStyle;rounded=0;orthogonalLoop=1;jettySize=auto;html=1;entryX=0;entryY=0.5;entryDx=0;entryDy=0;fontFamily=Helvetica;fontSize=11;fontColor=default;labelBackgroundColor=none;resizable=0;" edge="1" parent="1" source="TWlP38daomhFdKpjj_hh-3" target="gzgX_gIogwDmUI5mt8IQ-11">
          <mxGeometry relative="1" as="geometry" />
        </mxCell>
        <mxCell id="TWlP38daomhFdKpjj_hh-3" value="Cadastro de Usuario" style="ellipse;whiteSpace=wrap;html=1;align=center;fontStyle=1;fontFamily=Verdana;labelBackgroundColor=none;rounded=1;fillColor=none;" parent="1" vertex="1">
          <mxGeometry x="270" y="340" width="120" height="50" as="geometry" />
        </mxCell>
        <mxCell id="TWlP38daomhFdKpjj_hh-4" value="Visualizar tarefas" style="ellipse;whiteSpace=wrap;html=1;align=center;fontStyle=1;fontFamily=Verdana;labelBackgroundColor=none;rounded=1;" parent="1" vertex="1">
          <mxGeometry x="270" y="200" width="120" height="50" as="geometry" />
        </mxCell>
        <mxCell id="TWlP38daomhFdKpjj_hh-5" value="Atualização de tarefas" style="ellipse;whiteSpace=wrap;html=1;align=center;fontStyle=1;fontFamily=Verdana;labelBackgroundColor=none;rounded=1;" parent="1" vertex="1">
          <mxGeometry x="230" y="899" width="120" height="50" as="geometry" />
        </mxCell>
        <mxCell id="TWlP38daomhFdKpjj_hh-7" value="Exclusão de tarefas" style="ellipse;whiteSpace=wrap;html=1;align=center;fontStyle=1;fontFamily=Verdana;labelBackgroundColor=none;rounded=1;" parent="1" vertex="1">
          <mxGeometry x="230" y="1119" width="120" height="50" as="geometry" />
        </mxCell>
        <mxCell id="gzgX_gIogwDmUI5mt8IQ-5" value="&lt;span style=&quot;font-family: Verdana; font-weight: 700; background-color: rgb(251, 251, 251);&quot;&gt;&amp;lt;&amp;lt;Include&amp;gt;&amp;gt;&lt;/span&gt;" style="edgeLabel;html=1;align=center;verticalAlign=middle;resizable=0;points=[];labelBackgroundColor=none;rounded=1;" vertex="1" connectable="0" parent="1">
          <mxGeometry x="170.00311198716287" y="349.99706916442227" as="geometry" />
        </mxCell>
        <mxCell id="gzgX_gIogwDmUI5mt8IQ-9" value="&lt;span style=&quot;font-family: Verdana; font-weight: 700; background-color: rgb(251, 251, 251);&quot;&gt;&amp;lt;&amp;lt;Extends&amp;gt;&amp;gt;&lt;/span&gt;" style="edgeLabel;html=1;align=center;verticalAlign=middle;resizable=0;points=[];labelBackgroundColor=none;rounded=1;" vertex="1" connectable="0" parent="1">
          <mxGeometry x="140.00311198716287" y="419.99706916442227" as="geometry" />
        </mxCell>
        <mxCell id="gzgX_gIogwDmUI5mt8IQ-10" value="&lt;span style=&quot;font-family: Verdana; font-weight: 700; background-color: rgb(251, 251, 251);&quot;&gt;&amp;lt;&amp;lt;Include&amp;gt;&amp;gt;&lt;/span&gt;" style="edgeLabel;html=1;align=center;verticalAlign=middle;resizable=0;points=[];labelBackgroundColor=none;rounded=1;" vertex="1" connectable="0" parent="1">
          <mxGeometry x="170.00311198716287" y="209.99706916442227" as="geometry" />
        </mxCell>
        <mxCell id="gzgX_gIogwDmUI5mt8IQ-15" style="edgeStyle=orthogonalEdgeStyle;rounded=0;orthogonalLoop=1;jettySize=auto;html=1;entryX=0;entryY=0.5;entryDx=0;entryDy=0;fontFamily=Helvetica;fontSize=11;fontColor=default;labelBackgroundColor=none;resizable=0;" edge="1" parent="1" source="gzgX_gIogwDmUI5mt8IQ-11" target="gzgX_gIogwDmUI5mt8IQ-14">
          <mxGeometry relative="1" as="geometry" />
        </mxCell>
        <mxCell id="gzgX_gIogwDmUI5mt8IQ-11" value="Atualizar tarefas" style="ellipse;whiteSpace=wrap;html=1;align=center;fontStyle=1;fontFamily=Verdana;labelBackgroundColor=none;rounded=1;" vertex="1" parent="1">
          <mxGeometry x="650" y="340" width="120" height="50" as="geometry" />
        </mxCell>
        <mxCell id="gzgX_gIogwDmUI5mt8IQ-14" value="Excluir tarefas" style="ellipse;whiteSpace=wrap;html=1;align=center;fontStyle=1;fontFamily=Verdana;labelBackgroundColor=none;rounded=1;" vertex="1" parent="1">
          <mxGeometry x="990" y="340" width="120" height="50" as="geometry" />
        </mxCell>
        <mxCell id="gzgX_gIogwDmUI5mt8IQ-16" value="&lt;span style=&quot;font-family: Verdana; font-weight: 700; background-color: rgb(251, 251, 251);&quot;&gt;&amp;lt;&amp;lt;Include&amp;gt;&amp;gt;&lt;/span&gt;" style="edgeLabel;html=1;align=center;verticalAlign=middle;resizable=0;points=[];labelBackgroundColor=none;rounded=1;" vertex="1" connectable="0" parent="1">
          <mxGeometry x="520.0031119871628" y="349.99706916442227" as="geometry" />
        </mxCell>
        <mxCell id="gzgX_gIogwDmUI5mt8IQ-17" value="&lt;span style=&quot;font-family: Verdana; font-weight: 700; background-color: rgb(251, 251, 251);&quot;&gt;&amp;lt;&amp;lt;Extends&amp;gt;&amp;gt;&lt;/span&gt;" style="edgeLabel;html=1;align=center;verticalAlign=middle;resizable=0;points=[];labelBackgroundColor=none;rounded=1;" vertex="1" connectable="0" parent="1">
          <mxGeometry x="880.0031119871628" y="349.99706916442227" as="geometry" />
        </mxCell>
      </root>
    </mxGraphModel>
  </diagram>
</mxfile>
